Stranded on a lonely road, a schoolbus full of high school basketball players, their coaches, and cheerleaders must defend themselves from the Creeper - a flesh-eating ancient beast that resurfaces on the earth every 23 years to feed. Meanwhile, a farmer and his son set out on a personal mission to hunt the Creeper down.

[b][u]CAST[/u][/b]

Ray Wise	 ...	Jack Taggart Sr.
Jonathan Breck	 ...	The Creeper
Garikayi Mutambirwa	 ...	Deaundre 'Double D' Davis
Eric Nenninger	 ...	Scott 'Scotty' Braddock
Nicki Aycox	 ...	Minxie Hayes
Travis Schiffner	 ...	Izzy Bohen
Lena Cardwell	 ...	Chelsea Farmer
Billy Aaron Brown	 ...	Andy 'Bucky' Buck

[b][u]INFO[/u][/b]

Format                           : AVI
Format/Info                      : Audio Video Interleave
File size                        : 1.37 GiB
Duration                         : 1h 39mn
Overall bit rate                 : 1 962 Kbps
Writing application              : VirtualDubMod 1.5.4.1 (build 2178/release)
Writing library                  : VirtualDubMod build 2178/release

Video
ID                               : 0
Format                           : MPEG-4 Visual
Format profile                   : Advanced Simple@L5
Format settings, BVOP            : 1
Format settings, QPel            : No
Format settings, GMC             : No warppoints
Format settings, Matrix          : Custom
Codec ID                         : XVID
Codec ID/Hint                    : XviD
Duration                         : 1h 39mn
Bit rate                         : 1 507 Kbps
Width                            : 720 pixels
Height                           : 320 pixels
Display aspect ratio             : 2.25:1
Frame rate                       : 25.000 fps
Color space                      : YUV
Chroma subsampling               : 4:2:0
Bit depth                        : 8 bits
Scan type                        : Progressive
Compression mode                 : Lossy
Bits/(Pixel*Frame)               : 0.262
Stream size                      : 1.05 GiB (77%)
Writing library                  : XviD 1.2.1 (UTC 2008-12-04)

Audio
ID                               : 1
Format                           : AC-3
Format/Info                      : Audio Coding 3
Mode extension                   : CM (complete main)
Codec ID                         : 2000
Duration                         : 1h 39mn
Bit rate mode                    : Constant
Bit rate                         : 448 Kbps
Channel(s)                       : 6 channels
Channel positions                : Front: L C R, Side: L R, LFE
Sampling rate                    : 48.0 KHz
Bit depth                        : 16 bits
Compression mode                 : Lossy
Stream size                      : 320 MiB (23%)
Alignment                        : Split accross interleaves
Interleave, duration             : 96 ms (2.40 video frames)
Interleave, preload duration     : 96 ms

 
http://img36.imageshack.us/img36/3324/vlcsnap2011041512h24m10.png 
http://img593.imageshack.us/img593/6403/vlcsnap2011041512h24m22.png 
http://img706.imageshack.us/img706/8780/vlcsnap2011041512h24m25.png 
http://img690.imageshack.us/img690/5788/vlcsnap2011041512h25m22.png 
http://img857.imageshack.us/img857/5158/vlcsnap2011041512h26m17.png